<svg width="334" height="51" viewBox="0 0 334 51" fill="none" xmlns="http://www.w3.org/2000/svg">
<path d="M49.0525 25.3295C49.0525 38.3227 38.5195 48.8558 25.5263 48.8558C12.533 48.8558 2 38.3227 2 25.3295C2 12.3363 12.533 1.80322 25.5263 1.80322C38.5195 1.80322 49.0525 12.3363 49.0525 25.3295Z" stroke="#6BCE2D" stroke-width="2.47255"/>
<path d="M17.3178 39.6363C17.3178 39.6363 17.2744 39.6037 17.1931 39.5437C16.3174 38.8725 11.1303 34.6013 11.7436 28.2046C12.4164 21.2221 18.1389 11.7549 17.3579 8.53027C17.3579 8.53027 27.0493 16.2326 28.1405 25.3346C29.2306 34.4343 19.4408 39.3843 19.4408 39.3843C19.4408 39.3843 24.9199 28.2747 20.0087 17.0554C20.0087 17.0554 23.6298 24.2633 17.3158 39.6374L17.3178 39.6363Z" fill="#6BCE2D"/>
<path d="M26.3995 37.7887C26.3995 37.7887 26.4037 37.7608 26.4112 37.7088C26.5026 37.1423 27.18 33.7141 30.2604 32.4183C33.6238 31.0052 39.3697 31.2922 40.6538 30.1396C40.6538 30.1396 39.5155 36.4763 35.6165 39.2195C31.718 41.9617 27.0382 38.6987 27.0382 38.6987C27.0382 38.6987 33.4762 38.4694 37.4033 33.455C37.4033 33.455 34.9952 36.8898 26.3984 37.788L26.3995 37.7887Z" fill="#6BCE2D"/>
<path d="M30.9715 29.5592C30.9715 29.5592 30.961 29.5435 30.9415 29.5144C30.7336 29.1923 29.537 27.1875 30.4869 25.1667C31.5247 22.9613 34.5056 20.5345 34.6277 19.3882C34.6277 19.3882 36.896 23.0429 36.1869 26.1482C35.4778 29.2528 31.6954 29.7255 31.6954 29.7255C31.6954 29.7255 34.789 26.7329 34.4964 22.4875C34.4964 22.4875 34.8368 25.2695 30.9707 29.5594L30.9715 29.5592Z" fill="#6BCE2D"/>
<path d="M92.803 11.4712V38.1623H86.3002V22.1526L80.329 38.1623H75.0811L69.0728 22.1155V38.1623H62.5762V11.4712H70.2596L77.7514 29.9535L85.1629 11.4712H92.803Z" fill="#353535"/>
<path d="M119.156 16.9478L105.848 48.244H98.8504L103.715 37.4452L95.0859 16.9478H102.349L107.257 30.2191L112.122 16.9478H119.156Z" fill="#353535"/>
<path d="M151.25 11.6626L141.249 38.1683H137.255L127.254 11.6626H130.944L139.27 34.5151L147.597 11.6626H151.25Z" fill="#353535"/>
<path d="M173.948 29.0384H157.296C157.425 31.0906 158.124 32.6977 159.403 33.8475C160.683 35.0034 162.234 35.5782 164.064 35.5782C165.56 35.5782 166.809 35.2321 167.81 34.5336C168.811 33.8351 169.516 32.9079 169.918 31.7396H173.645C173.089 33.7424 171.97 35.3681 170.301 36.6229C168.632 37.8777 166.549 38.502 164.064 38.502C162.086 38.502 160.318 38.057 158.76 37.173C157.203 36.2891 155.979 35.0219 155.089 33.39C154.199 31.752 153.76 29.8605 153.76 27.7032C153.76 25.5459 154.192 23.6606 155.052 22.0349C155.911 20.4154 157.122 19.1667 158.68 18.289C160.238 17.4174 162.03 16.9785 164.058 16.9785C166.085 16.9785 167.785 17.4112 169.306 18.2704C170.827 19.1296 172.001 20.3165 172.823 21.8247C173.645 23.333 174.059 25.039 174.059 26.9367C174.059 27.5981 174.022 28.2904 173.948 29.026V29.0384ZM169.615 22.8199C169.034 21.868 168.237 21.1448 167.241 20.6502C166.24 20.1557 165.133 19.9085 163.916 19.9085C162.166 19.9085 160.677 20.4648 159.447 21.5836C158.217 22.6963 157.512 24.2478 157.339 26.2197H170.493C170.493 24.903 170.202 23.7657 169.615 22.8137V22.8199Z" fill="#353535"/>
<path d="M191.951 18.1655C193.305 18.9505 194.312 19.9396 194.974 21.1326V17.331H198.472V38.6258C198.472 40.5297 198.064 42.2172 197.255 43.7007C196.445 45.1843 195.283 46.3464 193.774 47.1808C192.266 48.0153 190.511 48.4357 188.508 48.4357C185.77 48.4357 183.489 47.7928 181.665 46.4947C179.842 45.1966 178.76 43.4411 178.432 41.2096H181.857C182.24 42.4768 183.025 43.4967 184.212 44.2694C185.405 45.0421 186.833 45.4315 188.508 45.4315C190.412 45.4315 191.963 44.8381 193.169 43.6451C194.374 42.4521 194.974 40.7831 194.974 38.6258V34.2556C194.288 35.4733 193.274 36.4871 191.932 37.2968C190.591 38.1066 189.015 38.5146 187.216 38.5146C185.417 38.5146 183.686 38.0571 182.178 37.1485C180.67 36.2336 179.483 34.9541 178.624 33.3099C177.759 31.6594 177.332 29.7865 177.332 27.6848C177.332 25.5831 177.765 23.6855 178.624 22.0783C179.483 20.4712 180.67 19.2225 182.178 18.3324C183.686 17.4423 185.368 17.0034 187.216 17.0034C189.064 17.0034 190.591 17.399 191.951 18.1841V18.1655ZM194.022 23.6051C193.385 22.4368 192.532 21.5467 191.456 20.9224C190.381 20.3043 189.194 19.989 187.902 19.989C186.61 19.989 185.43 20.2919 184.366 20.9039C183.303 21.5096 182.45 22.3997 181.82 23.568C181.183 24.7363 180.868 26.1024 180.868 27.6725C180.868 29.2425 181.183 30.658 181.82 31.8387C182.45 33.0193 183.303 33.9156 184.366 34.5399C185.43 35.1643 186.61 35.4733 187.902 35.4733C189.194 35.4733 190.381 35.1643 191.456 34.5399C192.532 33.9218 193.391 33.0193 194.022 31.8387C194.652 30.658 194.974 29.2858 194.974 27.7157C194.974 26.1457 194.658 24.7734 194.022 23.6113V23.6051Z" fill="#353535"/>
<path d="M204.329 22.0598C205.188 20.4526 206.375 19.204 207.883 18.3139C209.392 17.4237 211.073 16.9849 212.921 16.9849C214.769 16.9849 216.333 17.3805 217.675 18.1655C219.016 18.9505 220.017 19.9396 220.679 21.1326V17.331H224.177V38.1684H220.679V34.2927C219.993 35.5104 218.973 36.518 217.619 37.3154C216.265 38.1128 214.683 38.5146 212.884 38.5146C211.085 38.5146 209.361 38.0571 207.865 37.1485C206.369 36.2336 205.188 34.9541 204.329 33.3098C203.464 31.6594 203.037 29.7865 203.037 27.6848C203.037 25.5831 203.47 23.6855 204.329 22.0783V22.0598ZM219.727 23.5989C219.09 22.4306 218.237 21.5405 217.162 20.9162C216.086 20.2981 214.899 19.9828 213.607 19.9828C212.315 19.9828 211.135 20.2857 210.071 20.8977C209.008 21.5034 208.155 22.3936 207.525 23.5618C206.888 24.7301 206.573 26.0962 206.573 27.6663C206.573 29.2363 206.888 30.6519 207.525 31.8325C208.155 33.0131 209.008 33.9094 210.071 34.5338C211.135 35.1581 212.315 35.4671 213.607 35.4671C214.899 35.4671 216.086 35.1581 217.162 34.5338C218.237 33.9156 219.096 33.0131 219.727 31.8325C220.357 30.6519 220.679 29.2796 220.679 27.7095C220.679 26.1395 220.363 24.7672 219.727 23.6051V23.5989Z" fill="#353535"/>
<path d="M246.352 19.2471C247.922 20.78 248.707 22.993 248.707 25.8797V38.162H245.282V26.3742C245.282 24.2972 244.763 22.7024 243.725 21.6022C242.686 20.5019 241.264 19.9455 239.466 19.9455C237.667 19.9455 236.19 20.5142 235.114 21.6578C234.038 22.8013 233.501 24.4579 233.501 26.64V38.162H230.039V17.3247H233.501V20.2917C234.187 19.2285 235.114 18.4064 236.295 17.8192C237.475 17.2381 238.773 16.9414 240.195 16.9414C242.729 16.9414 244.782 17.7079 246.352 19.2409V19.2471Z" fill="#353535"/>
<path d="M280.286 13.2759C282.4 14.3515 284.026 15.8907 285.151 17.8934C286.276 19.8962 286.844 22.2513 286.844 24.9649C286.844 27.6785 286.282 30.0274 285.151 32.0178C284.019 34.0082 282.4 35.5288 280.286 36.5797C278.172 37.6305 275.668 38.1559 272.776 38.1559H264.523V11.6626H272.776C275.668 11.6626 278.166 12.2004 280.286 13.2759ZM280.607 32.5927C282.406 30.7816 283.309 28.241 283.309 24.9711C283.309 21.7011 282.4 19.105 280.589 17.2506C278.778 15.4023 276.169 14.4751 272.776 14.4751H267.985V35.3125H272.776C276.2 35.3125 278.809 34.4038 280.607 32.5927Z" fill="#353535"/>
<path d="M291.514 13.2571C291.057 12.7997 290.828 12.2434 290.828 11.582C290.828 10.9206 291.057 10.3643 291.514 9.90683C291.972 9.44941 292.528 9.2207 293.189 9.2207C293.851 9.2207 294.364 9.44941 294.803 9.90683C295.248 10.3643 295.47 10.9206 295.47 11.582C295.47 12.2434 295.248 12.7997 294.803 13.2571C294.358 13.7146 293.82 13.9433 293.189 13.9433C292.559 13.9433 291.972 13.7146 291.514 13.2571ZM294.858 17.3245V38.1618H291.397V17.3245H294.858Z" fill="#353535"/>
<path d="M319.655 29.0384H303.003C303.126 31.0906 303.831 32.6977 305.11 33.8475C306.39 35.0034 307.941 35.5782 309.771 35.5782C311.267 35.5782 312.516 35.2321 313.517 34.5336C314.518 33.8351 315.223 32.9079 315.625 31.7396H319.352C318.796 33.7424 317.677 35.3681 316.008 36.6229C314.333 37.8777 312.256 38.502 309.771 38.502C307.793 38.502 306.025 38.057 304.468 37.173C302.91 36.2891 301.686 35.0219 300.796 33.39C299.906 31.752 299.467 29.8605 299.467 27.7032C299.467 25.5459 299.899 23.6606 300.759 22.0349C301.618 20.4154 302.829 19.1667 304.393 18.289C305.951 17.4174 307.744 16.9785 309.771 16.9785C311.799 16.9785 313.498 17.4112 315.019 18.2704C316.54 19.1296 317.714 20.3165 318.536 21.8247C319.358 23.333 319.773 25.039 319.773 26.9367C319.773 27.5981 319.735 28.2904 319.661 29.026L319.655 29.0384ZM315.322 22.8199C314.741 21.868 313.944 21.1448 312.948 20.6502C311.947 20.1557 310.841 19.9085 309.623 19.9085C307.873 19.9085 306.384 20.4648 305.154 21.5836C303.924 22.6963 303.219 24.2478 303.046 26.2197H316.2C316.2 24.903 315.909 23.7657 315.328 22.8137L315.322 22.8199Z" fill="#353535"/>
<path d="M328.553 20.1804V32.4628C328.553 33.4765 328.769 34.1936 329.202 34.6139C329.635 35.0342 330.383 35.2444 331.446 35.2444H333.993V38.1744H330.877C328.949 38.1744 327.502 37.7293 326.544 36.8454C325.58 35.9615 325.098 34.5026 325.098 32.4752V20.1928H322.396V17.3432H325.098V12.0767H328.559V17.3246H333.999V20.1742H328.559L328.553 20.1804Z" fill="#353535"/>
</svg>
