<svg width="124" height="124" viewBox="0 0 124 124" fill="none" xmlns="http://www.w3.org/2000/svg">
<path d="M58.8404 0.077508C29.297 1.55662 4.18046 24.1134 0.464769 54.4688C-3.69271 88.4316 20.5059 119.378 54.4687 123.535C88.4315 127.692 119.378 103.494 123.535 69.5315C127.692 35.5687 103.494 4.62305 69.5315 0.465569C67.4091 0.205867 65.2979 0.0506423 63.2046 0.0118361C61.6471 -0.0165222 60.3075 0.00362713 58.8404 0.0767618V0.077508ZM63.1247 3.8126C65.0919 3.85364 67.0755 3.99543 69.071 4.23947C100.994 8.14694 123.668 37.1463 119.761 69.0696C115.853 100.993 86.8539 123.671 54.9307 119.763C23.0074 115.856 0.331187 86.8547 4.23867 54.9307C7.76853 26.0948 31.7731 4.8029 59.9113 3.83424C60.9658 3.79767 62.1464 3.79245 63.1247 3.8126ZM62.0001 24.9769C41.5522 24.9769 24.9768 41.5531 24.9768 62.0002C24.9768 82.4473 41.553 99.0242 62.0001 99.0234C82.4472 99.0234 99.0234 82.4473 99.0234 62.0002C99.0234 41.5531 82.4479 24.9769 62.0001 24.9769ZM42.8067 41.9911C46.0038 41.8165 52.3784 49.0762 56.2695 58.8225C59.6016 67.1688 60.1419 72.3577 59.618 79.2256C60.3978 79.1398 61.1837 79.0957 61.9725 79.0957C62.7613 79.0957 63.5844 79.1435 64.3829 79.2331C63.8576 72.3614 64.3971 67.1718 67.73 58.8225C71.621 49.0762 77.9964 41.8165 81.1935 41.9911C81.4069 42.0031 81.6054 42.0478 81.789 42.1269C84.7196 43.3941 84.3353 53.8098 80.0069 64.1293C76.6979 72.0174 73.6091 76.0442 68.8815 80.2249C72.2986 81.3599 75.4919 83.3293 78.23 86.0368C73.3024 83.048 67.6912 81.7853 61.9732 81.7853C56.2553 81.7853 50.6851 83.0405 45.7709 86.01C48.5068 83.3122 51.6963 81.3465 55.1075 80.2152C50.3866 76.0383 47.3 72.0114 43.9941 64.13C39.6657 53.8106 39.2813 43.3949 42.212 42.1277C42.3948 42.0486 42.594 42.0038 42.8075 41.9919L42.8067 41.9911ZM42.7209 44.1956C46.5135 47.0919 51.1545 53.1389 54.3426 60.4927C56.7754 66.1039 57.9262 70.383 58.2859 74.6024C58.1516 70.2271 57.2434 66.027 54.9322 60.2382C51.4642 51.5523 45.9358 44.9307 42.7209 44.1956ZM81.2793 44.1956C78.0643 44.9314 72.536 51.5523 69.068 60.2382C66.7568 66.027 65.8486 70.2271 65.7143 74.6024C66.074 70.383 67.224 66.1039 69.6576 60.4927C72.8457 53.1389 77.4875 47.0919 81.2793 44.1956ZM15.6275 60.9972C14.2118 60.9972 13.0641 62.1449 13.0633 63.5606C13.0633 64.977 14.2111 66.1248 15.6275 66.1248C17.0439 66.1248 18.1917 64.977 18.1917 63.5606C18.1917 62.1449 17.0439 60.9972 15.6275 60.9972ZM108.373 60.9972C106.957 60.9972 105.809 62.1449 105.808 63.5606C105.808 64.977 106.956 66.1248 108.373 66.1248C109.788 66.1248 110.936 64.977 110.936 63.5606C110.936 62.1449 109.788 60.9972 108.373 60.9972Z" fill="#6BCE2D"/>
<path d="M23.1602 44.5687C22.8886 45.2038 22.5438 45.7508 22.1244 46.2098C21.708 46.6658 21.2311 47.0061 20.6946 47.2337C20.158 47.4613 19.5669 47.565 18.9207 47.5397C18.2759 47.5143 17.5901 47.3434 16.8632 47.0322C16.1863 46.7426 15.6154 46.3777 15.152 45.9397C14.6886 45.5016 14.3415 45.0046 14.1132 44.4493C13.8938 43.9158 13.7968 43.3322 13.8251 42.6964C13.8535 42.0568 14.008 41.4128 14.2871 40.762C14.4408 40.4023 14.6027 40.0896 14.7654 39.8195C14.9304 39.5463 15.0923 39.2978 15.2639 39.0829C15.4445 38.856 15.6296 38.6635 15.808 38.4941C15.9878 38.3232 16.1468 38.1732 16.2908 38.0493L18.3617 38.9359L18.2535 39.1881C18.1154 39.2553 17.949 39.3463 17.752 39.4553C17.5572 39.5628 17.3535 39.6911 17.1431 39.8463C16.9296 40.0038 16.7296 40.1874 16.5408 40.3963C16.352 40.6053 16.1975 40.8493 16.0781 41.1284C15.9453 41.4381 15.8714 41.7538 15.849 42.0762C15.8274 42.3964 15.8736 42.724 15.999 43.0568C16.1192 43.3762 16.3296 43.6844 16.6296 43.9784C16.9289 44.2717 17.3363 44.5255 17.849 44.7449C18.3848 44.974 18.864 45.0934 19.2871 45.0964C19.7125 45.0964 20.0774 45.027 20.3819 44.8859C20.6923 44.7426 20.9558 44.5486 21.1692 44.3001C21.3819 44.0523 21.5453 43.7867 21.6647 43.5075C21.7796 43.2396 21.8513 42.9583 21.8834 42.6643C21.9155 42.3658 21.908 42.0769 21.8684 41.7956C21.8349 41.5613 21.7946 41.3359 21.7364 41.121C21.6781 40.906 21.6259 40.7277 21.5789 40.5852L21.6774 40.356L23.7199 41.2307C23.7296 41.4859 23.7296 41.7292 23.7296 41.9598C23.7296 42.1911 23.7155 42.4262 23.6849 42.6672C23.6461 42.9807 23.5946 43.2687 23.5319 43.5322C23.4692 43.7949 23.3461 44.1404 23.1595 44.5687H23.1602Z" fill="#6BCE2D"/>
<path d="M23.2445 31.683C23.0572 31.5449 22.8684 31.4643 22.6773 31.4427C22.4863 31.421 22.2833 31.4748 22.0683 31.6054C21.9183 31.6964 21.7758 31.8263 21.6355 31.9919C21.4952 32.1576 21.337 32.3539 21.1669 32.5845L20.6512 33.2822L22.6646 34.7688L23.1019 34.1763C23.3295 33.8681 23.5049 33.5994 23.6281 33.3695C23.7512 33.1397 23.8124 32.9151 23.8079 32.6957C23.7982 32.4852 23.7594 32.3039 23.6818 32.1524C23.6012 31.9949 23.4564 31.8382 23.2452 31.6822L23.2445 31.683ZM30.6512 32.5061L28.9124 34.8606L24.6661 34.874L24.0101 35.7628L26.7512 37.7875L25.3348 39.7054L17.8594 34.1845L20.2474 30.9516C20.5736 30.5098 20.8795 30.1486 21.1646 29.8673C21.4497 29.5867 21.7788 29.3695 22.1512 29.2151C22.5266 29.0583 22.9079 28.9986 23.2967 29.0292C23.6848 29.0598 24.0796 29.2195 24.481 29.5158C25.0333 29.924 25.387 30.3852 25.546 30.9001C25.7049 31.4121 25.7258 31.9904 25.6057 32.636L30.652 32.5069L30.6512 32.5061Z" fill="#6BCE2D"/>
<path d="M35.807 23.835C36.5391 24.7201 36.8309 25.6208 36.6824 26.5372C36.5339 27.4544 35.9354 28.3462 34.8876 29.2141C33.8399 30.0813 32.8511 30.5037 31.9227 30.4768C30.9973 30.4499 30.1704 29.994 29.4406 29.1126L25.6562 24.5402L27.5122 23.0044L31.2093 27.4708C31.6205 27.9678 32.0309 28.2514 32.4414 28.3231C32.8511 28.3947 33.2906 28.2365 33.7585 27.8492C34.2197 27.4671 34.4585 27.0716 34.4779 26.6626C34.4981 26.2507 34.2958 25.7865 33.869 25.2708L30.1719 20.8044L32.0279 19.2686L35.8085 23.8365L35.807 23.835Z" fill="#6BCE2D"/>
<path d="M46.1434 22.1441L40.1262 25.1397L35.9844 16.8202L42.0023 13.8247L42.8031 15.4337L38.9202 17.3665L39.6344 18.8023L43.2381 17.0083L44.0396 18.618L40.4359 20.412L41.459 22.468L45.3426 20.5344L46.1434 22.1441Z" fill="#6BCE2D"/>
<path d="M54.7904 19.6965L48.3075 21.4017L45.9434 12.4144L48.2613 11.8047L50.168 19.054L54.3329 17.9577L54.7904 19.6965Z" fill="#6BCE2D"/>
<path d="M63.3393 11.6195L60.4416 11.7777L60.8498 19.2621L58.4565 19.3927L58.049 11.9083L55.1505 12.0658L55.0527 10.271L63.2416 9.82471L63.3393 11.6195Z" fill="#6BCE2D"/>
<path d="M75.0301 11.4014L70.7293 16.473L70.1502 20.0208L67.7845 19.6342L68.3465 16.1977L65.8457 9.90137L68.5315 10.3402L69.9353 14.2118L72.4308 10.9767L75.0301 11.4014Z" fill="#6BCE2D"/>
<path d="M88.7258 19.3002L84.9467 17.3009L84.1385 18.8293L87.6415 20.6823L86.8012 22.2711L83.2982 20.4181L81.4415 23.9263L79.334 22.8114L83.6803 14.5972L89.5669 17.7114L88.7258 19.3002Z" fill="#6BCE2D"/>
<path d="M94.9735 25.4784C95.125 25.3008 95.2175 25.118 95.2534 24.9292C95.2884 24.7404 95.2534 24.5344 95.1332 24.3098C95.0534 24.1538 94.9332 24.0023 94.778 23.8508C94.6228 23.6993 94.4384 23.5277 94.2198 23.3419L93.5601 22.7784L91.9354 24.6822L92.4959 25.1605C92.7869 25.409 93.0429 25.6031 93.2638 25.7419C93.4847 25.8807 93.7041 25.9568 93.9235 25.9687C94.134 25.9799 94.3168 25.9486 94.4742 25.8814C94.6369 25.812 94.8034 25.6784 94.9735 25.4784ZM93.6325 32.8098L91.4056 30.9098L91.6899 26.6725L90.8496 25.9553L88.6377 28.5479L86.8242 27.0001L92.8563 19.9307L95.9138 22.5396C96.3317 22.8963 96.6705 23.2262 96.931 23.5307C97.1914 23.8344 97.384 24.1784 97.5123 24.5605C97.6422 24.9464 97.675 25.3307 97.6168 25.7165C97.5586 26.1008 97.372 26.4837 97.0481 26.8635C96.6026 27.3859 96.1168 27.7061 95.5929 27.8285C95.0713 27.9508 94.4929 27.9314 93.8571 27.7665L93.6325 32.8091V32.8098Z" fill="#6BCE2D"/>
<path d="M98.4102 39.3303L94.3945 33.94L101.847 28.3877L105.862 33.7788L104.421 34.8526L101.83 31.3735L100.544 32.3325L102.949 35.5601L101.507 36.634L99.102 33.4056L97.2602 34.778L99.852 38.2564L98.4102 39.3303Z" fill="#6BCE2D"/>
<path d="M102.346 47.427L99.5449 41.3165L107.993 37.4448L110.794 43.5553L109.16 44.3046L107.352 40.3613L105.894 41.0292L107.572 44.6889L105.937 45.4381L104.261 41.7784L102.173 42.7351L103.98 46.6784L102.346 47.427Z" fill="#6BCE2D"/>
<path d="M16.4074 87.9539C16.0723 87.3495 15.8514 86.742 15.7462 86.1301C15.6417 85.5218 15.6641 84.936 15.8133 84.3726C15.9626 83.8091 16.2432 83.2785 16.6596 82.783C17.0745 82.289 17.6305 81.8524 18.3216 81.4696C18.9656 81.1129 19.6037 80.8853 20.2342 80.7875C20.8648 80.6897 21.4701 80.7211 22.0484 80.8808C22.6044 81.0345 23.1253 81.3159 23.6096 81.7278C24.097 82.1427 24.5119 82.6599 24.8544 83.2786C25.044 83.6203 25.1925 83.9397 25.3059 84.2345C25.4208 84.5323 25.5171 84.8129 25.582 85.0808C25.6507 85.3621 25.6887 85.6271 25.7134 85.8711C25.738 86.1181 25.7589 86.336 25.7693 86.5256L23.7984 87.6181L23.6656 87.3778C23.6969 87.2278 23.7275 87.0405 23.7619 86.8181C23.7962 86.5987 23.8201 86.3584 23.8268 86.0972C23.8365 85.8323 23.8104 85.5614 23.7611 85.2845C23.7119 85.0077 23.6141 84.736 23.4671 84.4703C23.3037 84.1756 23.0999 83.9233 22.8596 83.7084C22.6201 83.495 22.3328 83.3308 21.9925 83.2256C21.6663 83.1248 21.294 83.1017 20.8775 83.1584C20.4626 83.2151 20.0119 83.3815 19.5238 83.6517C19.0141 83.9338 18.626 84.2397 18.3641 84.5726C18.1014 84.9069 17.9342 85.239 17.8589 85.5659C17.782 85.8987 17.773 86.2263 17.8387 86.5472C17.9044 86.8666 18.0133 87.1592 18.1611 87.4248C18.3022 87.6793 18.4798 87.9092 18.6932 88.1144C18.9096 88.3226 19.1417 88.4942 19.3887 88.6353C19.5947 88.7524 19.7977 88.8584 20.0022 88.9442C20.2066 89.0308 20.3805 89.0987 20.5223 89.1487L20.6432 89.3674L18.6999 90.4442C18.4962 90.2905 18.3029 90.1435 18.1193 90.0025C17.9365 89.8614 17.7596 89.7047 17.588 89.533C17.3648 89.3099 17.1678 89.0928 16.9984 88.8823C16.829 88.6719 16.632 88.3621 16.4066 87.9547L16.4074 87.9539Z" fill="#6BCE2D"/>
<path d="M28.2148 92.9443C28.3909 92.7913 28.5103 92.6249 28.5738 92.4436C28.6372 92.2622 28.629 92.0525 28.5484 91.8137C28.4924 91.6473 28.3969 91.4801 28.2655 91.307C28.1349 91.1339 27.9775 90.9369 27.7894 90.7204L27.2208 90.0652L25.3297 91.7048L25.8125 92.2615C26.0633 92.551 26.2872 92.7801 26.4849 92.951C26.682 93.1212 26.8879 93.2301 27.1036 93.2734C27.3103 93.3152 27.4961 93.3122 27.6618 93.269C27.8327 93.2242 28.0178 93.1175 28.2155 92.9458L28.2148 92.9443ZM25.7931 99.9929L23.8752 97.7817L24.7902 93.6346L24.0663 92.8003L21.4916 95.0331L19.9297 93.2316L26.9506 87.1436L29.5842 90.1801C29.9439 90.5951 30.2297 90.9727 30.4417 91.3122C30.6536 91.6518 30.7924 92.0204 30.8626 92.4175C30.9327 92.8182 30.9081 93.2033 30.7932 93.5764C30.6782 93.9481 30.4364 94.2988 30.0596 94.6257C29.5409 95.0757 29.0133 95.3197 28.476 95.3622C27.9417 95.4048 27.373 95.2996 26.7693 95.0414L25.7931 99.9936V99.9929Z" fill="#6BCE2D"/>
<path d="M36.1408 103.649C35.4565 104.571 34.6512 105.069 33.7259 105.144C32.7997 105.219 31.7908 104.851 30.6982 104.04C29.6057 103.229 28.9594 102.37 28.7639 101.462C28.5691 100.557 28.8146 99.6448 29.496 98.7254C30.6751 97.1366 33.0326 93.959 33.0326 93.959L34.9676 95.3948L31.5124 100.051C31.1281 100.569 30.9505 101.035 30.9788 101.45C31.0072 101.865 31.2654 102.254 31.7535 102.616C32.2348 102.972 32.6758 103.11 33.0773 103.031C33.4818 102.952 33.8841 102.645 34.2833 102.107L37.7386 97.4508L39.6736 98.8866L36.1408 103.648V103.649Z" fill="#6BCE2D"/>
<path d="M43.3228 110.875L37.2168 108.064L41.1034 99.6226L47.2094 102.433L46.4571 104.066L42.5168 102.252L41.8467 103.709L45.5034 105.393L44.7512 107.026L41.0944 105.342L40.134 107.428L44.0743 109.242L43.3228 110.875Z" fill="#6BCE2D"/>
<path d="M52.9456 113.535L46.4434 111.909L48.6986 102.894L51.0232 103.475L49.2046 110.747L53.3822 111.791L52.9456 113.535Z" fill="#6BCE2D"/>
<path d="M63.3441 106.843L60.447 106.668L59.9933 114.15L57.6015 114.004L58.0545 106.522L55.1582 106.347L55.2664 104.553L63.453 105.049L63.3441 106.843Z" fill="#6BCE2D"/>
<path d="M72.4639 103.865L69.8325 109.971L70.3146 113.534L67.94 113.856L67.4728 110.404L63.2422 105.113L65.9392 104.748L68.4124 108.041L69.8542 104.218L72.4639 103.865Z" fill="#6BCE2D"/>
<path d="M84.3668 100.901L80.4951 102.714L81.2287 104.28L84.8175 102.599L85.5802 104.226L81.9914 105.908L83.675 109.503L81.5153 110.514L77.5742 102.097L83.6048 99.2734L84.3668 100.901Z" fill="#6BCE2D"/>
<path d="M90.4239 97.9151C90.2851 97.7278 90.1284 97.5957 89.9522 97.5189C89.7761 97.442 89.5664 97.4345 89.3216 97.4965C89.1515 97.5398 88.9769 97.6219 88.7948 97.739C88.6119 97.8562 88.4037 97.9972 88.1731 98.1681L87.4761 98.6846L88.9649 100.696L89.5567 100.258C89.8642 100.031 90.1104 99.8248 90.2955 99.6413C90.4806 99.4577 90.6045 99.2607 90.6649 99.0495C90.7231 98.8472 90.7343 98.6614 90.7037 98.4928C90.6724 98.3189 90.5799 98.1263 90.4239 97.9159V97.9151ZM97.2642 100.873L94.9112 102.615L90.847 101.384L89.959 102.041L91.9866 104.78L90.0701 106.199L84.541 98.7293L87.7716 96.3383C88.2127 96.0114 88.6112 95.7554 88.9657 95.5704C89.3201 95.3853 89.6985 95.2741 90.1 95.2353C90.5045 95.1942 90.8866 95.2502 91.25 95.3935C91.6119 95.5368 91.9425 95.8047 92.2396 96.2062C92.6478 96.7577 92.8522 97.3032 92.8522 97.8413C92.8619 98.3771 92.7082 98.936 92.4008 99.5189L97.2627 100.874L97.2642 100.873Z" fill="#6BCE2D"/>
<path d="M103.353 94.1474L98.8645 99.1504L91.9473 92.9452L96.4353 87.9414L97.7734 89.1414L94.8771 92.3705L96.0712 93.4414L98.7592 90.4451L100.097 91.6452L97.4092 94.6422L99.1189 96.1758L102.015 92.9466L103.353 94.1474Z" fill="#6BCE2D"/>
<path d="M108.736 85.7166L105.279 91.4816L97.3086 86.7024L100.765 80.9375L102.307 81.8614L100.076 85.5815L101.452 86.4069L103.522 82.9539L105.064 83.8786L102.993 87.3308L104.963 88.5122L107.194 84.792L108.736 85.7166Z" fill="#6BCE2D"/>
</svg>
