<svg width="127" height="126" viewBox="0 0 127 126" fill="none" xmlns="http://www.w3.org/2000/svg">
<g clip-path="url(#clip0_273_498)">
<path d="M31.7753 53.3118V56.87H40.7669V63.6943H31.7753V67.7828H41.9965V75.0222H22.6992V46.0801H41.9965V53.3118H31.7753Z" fill="#6BCE2D"/>
<path d="M46.3462 52.8662C47.5067 50.6298 49.159 48.893 51.3108 47.6557C53.4626 46.4184 55.9987 45.7959 58.9114 45.7959C61.4167 45.7959 63.6608 46.2647 65.6358 47.21C67.6109 48.1475 69.2171 49.4771 70.4621 51.1985C71.6994 52.9123 72.5294 54.9181 72.9367 57.2083H63.3687C62.9307 56.2553 62.3159 55.5099 61.5089 54.9796C60.702 54.4493 59.7875 54.1804 58.75 54.1804C57.2206 54.1804 56.0141 54.749 55.1303 55.8941C54.2465 57.0392 53.8008 58.5762 53.8008 60.5129C53.8008 62.4495 54.2465 63.9866 55.1303 65.1316C56.0141 66.2767 57.2206 66.8454 58.75 66.8454C59.7875 66.8454 60.702 66.5764 61.5089 66.0462C62.3159 65.5159 62.9307 64.7704 63.3687 63.8175H72.9367C72.5294 66.1076 71.7071 68.1135 70.4621 69.8272C69.2248 71.541 67.6109 72.8705 65.6358 73.8158C63.6608 74.7534 61.4167 75.2299 58.9114 75.2299C55.9987 75.2299 53.4626 74.6074 51.3108 73.3701C49.159 72.1328 47.499 70.3882 46.3462 68.1596C45.1858 65.9232 44.6094 63.3794 44.6094 60.5129C44.6094 57.6463 45.1858 55.1026 46.3462 52.8662Z" fill="#6BCE2D"/>
<path d="M82.8105 73.3854C80.5357 72.102 78.7297 70.3344 77.3925 68.075C76.0553 65.8156 75.3867 63.2641 75.3867 60.4283C75.3867 57.5925 76.0553 55.0487 77.3925 52.7816C78.7297 50.5222 80.5357 48.7546 82.8105 47.4866C85.0853 46.2186 87.583 45.5884 90.3112 45.5884C93.0394 45.5884 95.5294 46.2186 97.7888 47.4866C100.048 48.7546 101.839 50.5222 103.168 52.7816C104.49 55.0411 105.151 57.5925 105.151 60.4283C105.151 63.2641 104.49 65.8079 103.168 68.075C101.847 70.3344 100.048 72.1097 97.7734 73.3854C95.4986 74.6688 93.0087 75.3067 90.3112 75.3067C87.6137 75.3067 85.0853 74.6688 82.8105 73.3854ZM94.4842 65.1086C95.4679 63.9481 95.9598 62.388 95.9598 60.4283C95.9598 58.4686 95.4679 56.8624 94.4842 55.7097C93.5005 54.5492 92.1172 53.9728 90.3112 53.9728C88.5052 53.9728 87.0835 54.5492 86.0998 55.7097C85.1161 56.8701 84.6242 58.4456 84.6242 60.4283C84.6242 62.4111 85.1161 63.9481 86.0998 65.1086C87.0835 66.269 88.4821 66.8454 90.3112 66.8454C92.1403 66.8454 93.5005 66.269 94.4842 65.1086Z" fill="#6BCE2D"/>
<path d="M120.783 76.1139C121.775 71.7411 127.001 67.7141 127.001 63.0416C127.001 58.369 121.783 54.342 120.783 49.9692C119.754 45.4503 122.689 39.5635 120.722 35.4904C118.724 31.3482 112.276 29.9802 109.433 26.422C106.581 22.8484 106.674 16.2546 103.1 13.4034C99.5418 10.56 93.1401 12.1123 88.9978 10.1142C84.9247 8.14683 82.1581 2.16013 77.6392 1.13801C73.2664 0.146632 68.1866 4.31196 63.5063 4.31196C58.8261 4.31196 53.7616 0.138947 49.3888 1.13033C44.87 2.16013 42.1033 8.14683 38.0302 10.1065C33.8879 12.1047 27.4862 10.56 23.928 13.3958C20.3545 16.2469 20.4467 22.8408 17.5955 26.4143C14.752 29.9725 8.30421 31.3405 6.30608 35.4828C4.33869 39.5559 7.2744 45.4427 6.2446 49.9615C5.25322 54.3343 0.0273438 58.3613 0.0273438 63.0339C0.0273438 67.7064 5.24553 71.7334 6.2446 76.1062C7.2744 80.6251 4.33869 86.5119 6.30608 90.585C7.69708 93.4669 11.2399 95.0039 14.2217 96.8714L16.1891 90.6311L13.6223 82.4849L12.3619 78.4886H12.385C10.9095 73.5932 10.1025 68.4058 10.1025 63.0339C10.1025 33.5384 34.0186 9.62237 63.514 9.62237C93.0095 9.62237 116.926 33.5384 116.926 63.0339C116.926 68.4058 116.126 73.5932 114.643 78.4886H114.666L113.406 82.4849L110.839 90.6311L112.806 96.8714C115.788 95.0039 119.331 93.4669 120.722 90.585C122.689 86.5119 119.754 80.6251 120.783 76.1062V76.1139Z" fill="#6BCE2D"/>
<path d="M99.1969 102.781C89.7365 111.281 77.2328 116.453 63.5226 116.453C49.8124 116.453 37.301 111.281 27.8483 102.781H19.2871C20.6397 106.278 21.2545 110.528 23.9366 112.672C27.4948 115.515 33.8965 113.963 38.0388 115.961C42.1119 117.928 44.8785 123.915 49.3974 124.937C53.7702 125.929 58.85 121.763 63.5303 121.763C68.2105 121.763 73.2827 125.936 77.6632 124.937C82.182 123.907 84.9487 117.921 89.0218 115.961C93.1641 113.963 99.5657 115.508 103.124 112.672C105.806 110.528 106.429 106.278 107.773 102.773H99.2122L99.1969 102.781Z" fill="#6BCE2D"/>
<path d="M69.4716 31.5095L63.5156 33.2155C63.5156 29.4883 65.9825 26.2144 69.5715 25.1846L75.5274 23.4785C75.5274 27.2058 73.0605 30.4796 69.4716 31.5095Z" fill="#6BCE2D"/>
<path d="M57.4677 25.1846L51.5117 23.4785C51.5117 27.2058 53.9786 30.4796 57.5676 31.5095L63.5235 33.2155C63.5235 29.4883 61.0566 26.2144 57.4677 25.1846Z" fill="#6BCE2D"/>
<path d="M69.4716 38.818L63.5156 40.5241C63.5156 36.7969 65.9825 33.523 69.5715 32.4932L75.5274 30.7871C75.5274 34.5144 73.0605 37.7882 69.4716 38.818Z" fill="#6BCE2D"/>
<path d="M57.4677 32.4932L51.5117 30.7871C51.5117 34.5144 53.9786 37.7882 57.5676 38.818L63.5235 40.5241C63.5235 36.7969 61.0566 33.523 57.4677 32.4932Z" fill="#6BCE2D"/>
<path d="M63.5164 28.374C59.8122 24.6698 59.8122 18.6677 63.5164 14.9712C67.2207 18.6754 67.2207 24.6775 63.5164 28.374Z" fill="#6BCE2D"/>
<path d="M40.3548 87.5342H38.9023V89.7321H40.3548C40.7545 89.7321 41.0542 89.6399 41.254 89.4478C41.4538 89.2556 41.5537 88.9867 41.5537 88.6255C41.5537 88.2873 41.4538 88.0183 41.2463 87.8262C41.0388 87.6341 40.7468 87.5342 40.3548 87.5342Z" fill="#6BCE2D"/>
<path d="M75.5047 87.6265H74.4902V93.0368H75.5047C76.3577 93.0368 77.034 92.8062 77.5182 92.3374C78.0023 91.8686 78.2483 91.2077 78.2483 90.3547C78.2483 89.5016 78.0023 88.8177 77.5182 88.3412C77.0263 87.8647 76.3577 87.6342 75.5047 87.6342V87.6265Z" fill="#6BCE2D"/>
<path d="M111.342 80.2793H15.6777L18.9362 90.6235L15.6777 100.968H111.334L108.076 90.6235L111.334 80.2793H111.342ZM34.3679 87.4188H30.1565V89.2709H33.2613V91.4996H30.1565V95.6188H27.2285V85.0902H34.3679V87.4188ZM41.3153 95.6188L39.2249 91.7378H38.9098V95.6188H35.9818V85.0902H40.6005C41.4459 85.0902 42.1606 85.2362 42.7524 85.5282C43.3364 85.8203 43.7822 86.2276 44.0819 86.7348C44.3816 87.2497 44.5276 87.8261 44.5276 88.4563C44.5276 89.171 44.3278 89.8011 43.9359 90.3468C43.5439 90.8924 42.9675 91.2767 42.2067 91.5072L44.5814 95.6188H41.3076H41.3153ZM49.1617 95.6188H46.2337V85.0902H49.1617V95.6188ZM57.9458 87.4341H54.134V89.1556H57.4924V91.3843H54.134V93.2825H57.9458V95.6265H51.206V85.0979H57.9458V87.4418V87.4341ZM69.5196 95.6188H66.5916L62.6952 89.732V95.6188H59.7672V85.0902H62.6952L66.5916 91.0538V85.0902H69.5196V95.6188ZM80.5554 93.0673C80.102 93.8666 79.4564 94.4891 78.6264 94.9425C77.7965 95.3959 76.8281 95.6188 75.7368 95.6188H71.5715V85.0902H75.7368C76.8435 85.0902 77.8118 85.313 78.6418 85.7511C79.4718 86.1968 80.1097 86.8116 80.5631 87.6109C81.0088 88.4101 81.2317 89.317 81.2317 90.3468C81.2317 91.3766 81.0011 92.2681 80.5554 93.0673ZM89.1243 95.6188H82.9224V85.0902H85.8504V93.3824H89.1243V95.6265V95.6188ZM96.502 92.2758V95.6188H93.5586V92.2758L89.8544 85.0902H93.1974L95.0495 89.1556L96.9016 85.0902H100.206L96.502 92.2758Z" fill="#6BCE2D"/>
</g>
<defs>
<clipPath id="clip0_273_498">
<rect width="126.973" height="124.122" fill="white" transform="translate(0.0273438 0.976562)"/>
</clipPath>
</defs>
</svg>
